<?xml version="1.0" encoding="UTF-8" standalone="no"?>
<!DOCTYPE svg PUBLIC "-//W3C//DTD SVG 1.1//EN"
 "http://www.w3.org/Graphics/SVG/1.1/DTD/svg11.dtd">
<!-- Generated by graphviz version 2.38.0 (20140413.2041)
 -->
<!-- Title: snakemake_dag Pages: 1 -->
<svg width="989pt" height="348pt"
 viewBox="0.00 0.00 989.05 348.00" xmlns="http://www.w3.org/2000/svg" xmlns:xlink="http://www.w3.org/1999/xlink">
<g id="graph0" class="graph" transform="scale(1 1) rotate(0) translate(4 344)">
<title>snakemake_dag</title>
<polygon fill="white" stroke="none" points="-4,4 -4,-344 985.048,-344 985.048,4 -4,4"/>
<!-- 0 -->
<g id="node1" class="node"><title>0</title>
<path fill="none" stroke="#d88d56" stroke-width="2" stroke-dasharray="5,2" d="M878.383,-180C878.383,-180 806.527,-180 806.527,-180 800.527,-180 794.527,-174 794.527,-168 794.527,-168 794.527,-156 794.527,-156 794.527,-150 800.527,-144 806.527,-144 806.527,-144 878.383,-144 878.383,-144 884.383,-144 890.383,-150 890.383,-156 890.383,-156 890.383,-168 890.383,-168 890.383,-174 884.383,-180 878.383,-180"/>
<text text-anchor="middle" x="842.455" y="-159" font-family="sans" font-size="10.00">qc_trimmomatic_se</text>
</g>
<!-- 7 -->
<g id="node8" class="node"><title>7</title>
<path fill="none" stroke="#d8bc56" stroke-width="2" stroke-dasharray="5,2" d="M857.77,-108C857.77,-108 827.14,-108 827.14,-108 821.14,-108 815.14,-102 815.14,-96 815.14,-96 815.14,-84 815.14,-84 815.14,-78 821.14,-72 827.14,-72 827.14,-72 857.77,-72 857.77,-72 863.77,-72 869.77,-78 869.77,-84 869.77,-84 869.77,-96 869.77,-96 869.77,-102 863.77,-108 857.77,-108"/>
<text text-anchor="middle" x="842.455" y="-93" font-family="sans" font-size="10.00">qc_fastqc</text>
<text text-anchor="middle" x="842.455" y="-81" font-family="sans" font-size="10.00">end: SE</text>
</g>
<!-- 0&#45;&gt;7 -->
<g id="edge12" class="edge"><title>0&#45;&gt;7</title>
<path fill="none" stroke="grey" stroke-width="2" d="M842.455,-143.697C842.455,-135.983 842.455,-126.712 842.455,-118.112"/>
<polygon fill="grey" stroke="grey" stroke-width="2" points="845.955,-118.104 842.455,-108.104 838.955,-118.104 845.955,-118.104"/>
</g>
<!-- 8 -->
<g id="node9" class="node"><title>8</title>
<path fill="none" stroke="#56d88a" stroke-width="2" stroke-dasharray="5,2" d="M503.455,-36C503.455,-36 473.455,-36 473.455,-36 467.455,-36 461.455,-30 461.455,-24 461.455,-24 461.455,-12 461.455,-12 461.455,-6 467.455,-0 473.455,-0 473.455,-0 503.455,-0 503.455,-0 509.455,-0 515.455,-6 515.455,-12 515.455,-12 515.455,-24 515.455,-24 515.455,-30 509.455,-36 503.455,-36"/>
<text text-anchor="middle" x="488.455" y="-15" font-family="sans" font-size="10.00">all</text>
</g>
<!-- 0&#45;&gt;8 -->
<g id="edge13" class="edge"><title>0&#45;&gt;8</title>
<path fill="none" stroke="grey" stroke-width="2" d="M832.264,-143.862C819.091,-123.319 794.156,-89.4815 763.455,-72 687.044,-28.491 581.355,-20.0048 525.886,-18.772"/>
<polygon fill="grey" stroke="grey" stroke-width="2" points="525.861,-15.2713 515.808,-18.6166 525.753,-22.2704 525.861,-15.2713"/>
</g>
<!-- 1 -->
<g id="node2" class="node"><title>1</title>
<path fill="none" stroke="#88d856" stroke-width="2" stroke-dasharray="5,2" d="M627.486,-340C627.486,-340 555.424,-340 555.424,-340 549.424,-340 543.424,-334 543.424,-328 543.424,-328 543.424,-308 543.424,-308 543.424,-302 549.424,-296 555.424,-296 555.424,-296 627.486,-296 627.486,-296 633.486,-296 639.486,-302 639.486,-308 639.486,-308 639.486,-328 639.486,-328 639.486,-334 633.486,-340 627.486,-340"/>
<text text-anchor="middle" x="591.455" y="-327" font-family="sans" font-size="10.00">raw_make_links_pe</text>
<text text-anchor="middle" x="591.455" y="-315" font-family="sans" font-size="10.00">run: test1</text>
<text text-anchor="middle" x="591.455" y="-303" font-family="sans" font-size="10.00">sample: sample1</text>
</g>
<!-- 2 -->
<g id="node3" class="node"><title>2</title>
<path fill="none" stroke="#d85656" stroke-width="2" stroke-dasharray="5,2" d="M627.494,-256C627.494,-256 555.416,-256 555.416,-256 549.416,-256 543.416,-250 543.416,-244 543.416,-244 543.416,-232 543.416,-232 543.416,-226 549.416,-220 555.416,-220 555.416,-220 627.494,-220 627.494,-220 633.494,-220 639.494,-226 639.494,-232 639.494,-232 639.494,-244 639.494,-244 639.494,-250 633.494,-256 627.494,-256"/>
<text text-anchor="middle" x="591.455" y="-235" font-family="sans" font-size="10.00">qc_trimmomatic_pe</text>
</g>
<!-- 1&#45;&gt;2 -->
<g id="edge2" class="edge"><title>1&#45;&gt;2</title>
<path fill="none" stroke="grey" stroke-width="2" d="M591.455,-295.686C591.455,-286.641 591.455,-275.985 591.455,-266.369"/>
<polygon fill="grey" stroke="grey" stroke-width="2" points="594.955,-266.093 591.455,-256.093 587.955,-266.093 594.955,-266.093"/>
</g>
<!-- 4 -->
<g id="node5" class="node"><title>4</title>
<path fill="none" stroke="#56c1d8" stroke-width="2" stroke-dasharray="5,2" d="M462.142,-180C462.142,-180 392.768,-180 392.768,-180 386.768,-180 380.768,-174 380.768,-168 380.768,-168 380.768,-156 380.768,-156 380.768,-150 386.768,-144 392.768,-144 392.768,-144 462.142,-144 462.142,-144 468.142,-144 474.142,-150 474.142,-156 474.142,-156 474.142,-168 474.142,-168 474.142,-174 468.142,-180 462.142,-180"/>
<text text-anchor="middle" x="427.455" y="-165" font-family="sans" font-size="10.00">raw_fastqc_sample</text>
<text text-anchor="middle" x="427.455" y="-153" font-family="sans" font-size="10.00">end: R2</text>
</g>
<!-- 1&#45;&gt;4 -->
<g id="edge3" class="edge"><title>1&#45;&gt;4</title>
<path fill="none" stroke="grey" stroke-width="2" d="M568.995,-295.91C538.749,-267.508 485.054,-217.087 453.207,-187.182"/>
<polygon fill="grey" stroke="grey" stroke-width="2" points="455.295,-184.341 445.609,-180.047 450.503,-189.444 455.295,-184.341"/>
</g>
<!-- 17 -->
<g id="node18" class="node"><title>17</title>
<path fill="none" stroke="#56c1d8" stroke-width="2" stroke-dasharray="5,2" d="M718.142,-180C718.142,-180 648.768,-180 648.768,-180 642.768,-180 636.768,-174 636.768,-168 636.768,-168 636.768,-156 636.768,-156 636.768,-150 642.768,-144 648.768,-144 648.768,-144 718.142,-144 718.142,-144 724.142,-144 730.142,-150 730.142,-156 730.142,-156 730.142,-168 730.142,-168 730.142,-174 724.142,-180 718.142,-180"/>
<text text-anchor="middle" x="683.455" y="-165" font-family="sans" font-size="10.00">raw_fastqc_sample</text>
<text text-anchor="middle" x="683.455" y="-153" font-family="sans" font-size="10.00">end: R1</text>
</g>
<!-- 1&#45;&gt;17 -->
<g id="edge43" class="edge"><title>1&#45;&gt;17</title>
<path fill="none" stroke="grey" stroke-width="2" d="M617.294,-295.743C628.091,-285.795 640.051,-273.231 648.455,-260 662.268,-238.251 671.612,-210.3 677.146,-189.994"/>
<polygon fill="grey" stroke="grey" stroke-width="2" points="680.577,-190.703 679.696,-180.145 673.801,-188.948 680.577,-190.703"/>
</g>
<!-- 2&#45;&gt;8 -->
<g id="edge14" class="edge"><title>2&#45;&gt;8</title>
<path fill="none" stroke="grey" stroke-width="2" d="M639.84,-232.398C673.907,-226.345 717.249,-212.348 739.455,-180 748.51,-166.809 747.769,-157.67 739.455,-144 692.897,-67.4513 583.552,-36.3615 525.762,-24.932"/>
<polygon fill="grey" stroke="grey" stroke-width="2" points="526.073,-21.4291 515.598,-23.0201 524.779,-28.3085 526.073,-21.4291"/>
</g>
<!-- 11 -->
<g id="node12" class="node"><title>11</title>
<path fill="none" stroke="#d8bc56" stroke-width="2" stroke-dasharray="5,2" d="M534.77,-180C534.77,-180 504.14,-180 504.14,-180 498.14,-180 492.14,-174 492.14,-168 492.14,-168 492.14,-156 492.14,-156 492.14,-150 498.14,-144 504.14,-144 504.14,-144 534.77,-144 534.77,-144 540.77,-144 546.77,-150 546.77,-156 546.77,-156 546.77,-168 546.77,-168 546.77,-174 540.77,-180 534.77,-180"/>
<text text-anchor="middle" x="519.455" y="-165" font-family="sans" font-size="10.00">qc_fastqc</text>
<text text-anchor="middle" x="519.455" y="-153" font-family="sans" font-size="10.00">end: R1</text>
</g>
<!-- 2&#45;&gt;11 -->
<g id="edge30" class="edge"><title>2&#45;&gt;11</title>
<path fill="none" stroke="grey" stroke-width="2" d="M574.756,-219.837C565.396,-210.217 553.564,-198.057 543.249,-187.456"/>
<polygon fill="grey" stroke="grey" stroke-width="2" points="545.546,-184.797 536.063,-180.07 540.528,-189.678 545.546,-184.797"/>
</g>
<!-- 18 -->
<g id="node19" class="node"><title>18</title>
<path fill="none" stroke="#d8bc56" stroke-width="2" stroke-dasharray="5,2" d="M606.77,-180C606.77,-180 576.14,-180 576.14,-180 570.14,-180 564.14,-174 564.14,-168 564.14,-168 564.14,-156 564.14,-156 564.14,-150 570.14,-144 576.14,-144 576.14,-144 606.77,-144 606.77,-144 612.77,-144 618.77,-150 618.77,-156 618.77,-156 618.77,-168 618.77,-168 618.77,-174 612.77,-180 606.77,-180"/>
<text text-anchor="middle" x="591.455" y="-165" font-family="sans" font-size="10.00">qc_fastqc</text>
<text text-anchor="middle" x="591.455" y="-153" font-family="sans" font-size="10.00">end: R2</text>
</g>
<!-- 2&#45;&gt;18 -->
<g id="edge44" class="edge"><title>2&#45;&gt;18</title>
<path fill="none" stroke="grey" stroke-width="2" d="M591.455,-219.837C591.455,-211.058 591.455,-200.163 591.455,-190.267"/>
<polygon fill="grey" stroke="grey" stroke-width="2" points="594.955,-190.07 591.455,-180.07 587.955,-190.07 594.955,-190.07"/>
</g>
<!-- 3 -->
<g id="node4" class="node"><title>3</title>
<path fill="none" stroke="#56d8c1" stroke-width="2" stroke-dasharray="5,2" d="M920.375,-260C920.375,-260 848.535,-260 848.535,-260 842.535,-260 836.535,-254 836.535,-248 836.535,-248 836.535,-228 836.535,-228 836.535,-222 842.535,-216 848.535,-216 848.535,-216 920.375,-216 920.375,-216 926.375,-216 932.375,-222 932.375,-228 932.375,-228 932.375,-248 932.375,-248 932.375,-254 926.375,-260 920.375,-260"/>
<text text-anchor="middle" x="884.455" y="-247" font-family="sans" font-size="10.00">raw_make_links_se</text>
<text text-anchor="middle" x="884.455" y="-235" font-family="sans" font-size="10.00">run: test1</text>
<text text-anchor="middle" x="884.455" y="-223" font-family="sans" font-size="10.00">sample: sample1</text>
</g>
<!-- 3&#45;&gt;0 -->
<g id="edge1" class="edge"><title>3&#45;&gt;0</title>
<path fill="none" stroke="grey" stroke-width="2" d="M872.532,-215.993C867.78,-207.62 862.26,-197.895 857.256,-189.079"/>
<polygon fill="grey" stroke="grey" stroke-width="2" points="860.262,-187.284 852.282,-180.315 854.174,-190.739 860.262,-187.284"/>
</g>
<!-- 12 -->
<g id="node13" class="node"><title>12</title>
<path fill="none" stroke="#56c1d8" stroke-width="2" stroke-dasharray="5,2" d="M969.142,-108C969.142,-108 899.768,-108 899.768,-108 893.768,-108 887.768,-102 887.768,-96 887.768,-96 887.768,-84 887.768,-84 887.768,-78 893.768,-72 899.768,-72 899.768,-72 969.142,-72 969.142,-72 975.142,-72 981.142,-78 981.142,-84 981.142,-84 981.142,-96 981.142,-96 981.142,-102 975.142,-108 969.142,-108"/>
<text text-anchor="middle" x="934.455" y="-93" font-family="sans" font-size="10.00">raw_fastqc_sample</text>
<text text-anchor="middle" x="934.455" y="-81" font-family="sans" font-size="10.00">end: SE</text>
</g>
<!-- 3&#45;&gt;12 -->
<g id="edge31" class="edge"><title>3&#45;&gt;12</title>
<path fill="none" stroke="grey" stroke-width="2" d="M891.725,-215.77C900.602,-189.849 915.624,-145.987 925.286,-117.774"/>
<polygon fill="grey" stroke="grey" stroke-width="2" points="928.653,-118.745 928.581,-108.15 922.03,-116.477 928.653,-118.745"/>
</g>
<!-- 6 -->
<g id="node7" class="node"><title>6</title>
<path fill="none" stroke="#568ad8" stroke-width="2" stroke-dasharray="5,2" d="M448.456,-108C448.456,-108 406.454,-108 406.454,-108 400.454,-108 394.454,-102 394.454,-96 394.454,-96 394.454,-84 394.454,-84 394.454,-78 400.454,-72 406.454,-72 406.454,-72 448.456,-72 448.456,-72 454.456,-72 460.456,-78 460.456,-84 460.456,-84 460.456,-96 460.456,-96 460.456,-102 454.456,-108 448.456,-108"/>
<text text-anchor="middle" x="427.455" y="-87" font-family="sans" font-size="10.00">multiQC_all</text>
</g>
<!-- 4&#45;&gt;6 -->
<g id="edge7" class="edge"><title>4&#45;&gt;6</title>
<path fill="none" stroke="grey" stroke-width="2" d="M427.455,-143.697C427.455,-135.983 427.455,-126.712 427.455,-118.112"/>
<polygon fill="grey" stroke="grey" stroke-width="2" points="430.955,-118.104 427.455,-108.104 423.955,-118.104 430.955,-118.104"/>
</g>
<!-- 4&#45;&gt;8 -->
<g id="edge22" class="edge"><title>4&#45;&gt;8</title>
<path fill="none" stroke="grey" stroke-width="2" d="M444.491,-143.763C453.203,-134.016 463.251,-121.17 469.455,-108 478.685,-88.405 483.478,-64.2733 485.94,-46.0835"/>
<polygon fill="grey" stroke="grey" stroke-width="2" points="489.416,-46.4857 487.135,-36.1394 482.466,-45.6501 489.416,-46.4857"/>
</g>
<!-- 16 -->
<g id="node17" class="node"><title>16</title>
<path fill="none" stroke="#59d856" stroke-width="2" stroke-dasharray="5,2" d="M364.289,-108C364.289,-108 318.621,-108 318.621,-108 312.621,-108 306.621,-102 306.621,-96 306.621,-96 306.621,-84 306.621,-84 306.621,-78 312.621,-72 318.621,-72 318.621,-72 364.289,-72 364.289,-72 370.289,-72 376.289,-78 376.289,-84 376.289,-84 376.289,-96 376.289,-96 376.289,-102 370.289,-108 364.289,-108"/>
<text text-anchor="middle" x="341.455" y="-87" font-family="sans" font-size="10.00">multiQC_run</text>
</g>
<!-- 4&#45;&gt;16 -->
<g id="edge38" class="edge"><title>4&#45;&gt;16</title>
<path fill="none" stroke="grey" stroke-width="2" d="M406.196,-143.697C395.365,-134.881 382.037,-124.032 370.295,-114.474"/>
<polygon fill="grey" stroke="grey" stroke-width="2" points="372.434,-111.703 362.469,-108.104 368.015,-117.132 372.434,-111.703"/>
</g>
<!-- 5 -->
<g id="node6" class="node"><title>5</title>
<path fill="none" stroke="#88d856" stroke-width="2" stroke-dasharray="5,2" d="M241.486,-340C241.486,-340 169.424,-340 169.424,-340 163.424,-340 157.424,-334 157.424,-328 157.424,-328 157.424,-308 157.424,-308 157.424,-302 163.424,-296 169.424,-296 169.424,-296 241.486,-296 241.486,-296 247.486,-296 253.486,-302 253.486,-308 253.486,-308 253.486,-328 253.486,-328 253.486,-334 247.486,-340 241.486,-340"/>
<text text-anchor="middle" x="205.455" y="-327" font-family="sans" font-size="10.00">raw_make_links_pe</text>
<text text-anchor="middle" x="205.455" y="-315" font-family="sans" font-size="10.00">run: test1</text>
<text text-anchor="middle" x="205.455" y="-303" font-family="sans" font-size="10.00">sample: sample2</text>
</g>
<!-- 10 -->
<g id="node11" class="node"><title>10</title>
<path fill="none" stroke="#d85656" stroke-width="2" stroke-dasharray="5,2" d="M113.494,-256C113.494,-256 41.4157,-256 41.4157,-256 35.4157,-256 29.4157,-250 29.4157,-244 29.4157,-244 29.4157,-232 29.4157,-232 29.4157,-226 35.4157,-220 41.4157,-220 41.4157,-220 113.494,-220 113.494,-220 119.494,-220 125.494,-226 125.494,-232 125.494,-232 125.494,-244 125.494,-244 125.494,-250 119.494,-256 113.494,-256"/>
<text text-anchor="middle" x="77.4548" y="-235" font-family="sans" font-size="10.00">qc_trimmomatic_pe</text>
</g>
<!-- 5&#45;&gt;10 -->
<g id="edge29" class="edge"><title>5&#45;&gt;10</title>
<path fill="none" stroke="grey" stroke-width="2" d="M170.816,-295.892C153.415,-285.288 132.316,-272.431 114.581,-261.624"/>
<polygon fill="grey" stroke="grey" stroke-width="2" points="116.012,-258.397 105.651,-256.182 112.369,-264.375 116.012,-258.397"/>
</g>
<!-- 14 -->
<g id="node15" class="node"><title>14</title>
<path fill="none" stroke="#56c1d8" stroke-width="2" stroke-dasharray="5,2" d="M240.142,-180C240.142,-180 170.768,-180 170.768,-180 164.768,-180 158.768,-174 158.768,-168 158.768,-168 158.768,-156 158.768,-156 158.768,-150 164.768,-144 170.768,-144 170.768,-144 240.142,-144 240.142,-144 246.142,-144 252.142,-150 252.142,-156 252.142,-156 252.142,-168 252.142,-168 252.142,-174 246.142,-180 240.142,-180"/>
<text text-anchor="middle" x="205.455" y="-165" font-family="sans" font-size="10.00">raw_fastqc_sample</text>
<text text-anchor="middle" x="205.455" y="-153" font-family="sans" font-size="10.00">end: R1</text>
</g>
<!-- 5&#45;&gt;14 -->
<g id="edge33" class="edge"><title>5&#45;&gt;14</title>
<path fill="none" stroke="grey" stroke-width="2" d="M205.455,-295.91C205.455,-268.471 205.455,-220.48 205.455,-190.292"/>
<polygon fill="grey" stroke="grey" stroke-width="2" points="208.955,-190.047 205.455,-180.047 201.955,-190.047 208.955,-190.047"/>
</g>
<!-- 15 -->
<g id="node16" class="node"><title>15</title>
<path fill="none" stroke="#56c1d8" stroke-width="2" stroke-dasharray="5,2" d="M351.142,-180C351.142,-180 281.768,-180 281.768,-180 275.768,-180 269.768,-174 269.768,-168 269.768,-168 269.768,-156 269.768,-156 269.768,-150 275.768,-144 281.768,-144 281.768,-144 351.142,-144 351.142,-144 357.142,-144 363.142,-150 363.142,-156 363.142,-156 363.142,-168 363.142,-168 363.142,-174 357.142,-180 351.142,-180"/>
<text text-anchor="middle" x="316.455" y="-165" font-family="sans" font-size="10.00">raw_fastqc_sample</text>
<text text-anchor="middle" x="316.455" y="-153" font-family="sans" font-size="10.00">end: R2</text>
</g>
<!-- 5&#45;&gt;15 -->
<g id="edge34" class="edge"><title>5&#45;&gt;15</title>
<path fill="none" stroke="grey" stroke-width="2" d="M220.656,-295.91C240.867,-267.869 276.548,-218.366 298.196,-188.333"/>
<polygon fill="grey" stroke="grey" stroke-width="2" points="301.16,-190.206 304.168,-180.047 295.481,-186.113 301.16,-190.206"/>
</g>
<!-- 6&#45;&gt;8 -->
<g id="edge15" class="edge"><title>6&#45;&gt;8</title>
<path fill="none" stroke="grey" stroke-width="2" d="M442.533,-71.6966C449.847,-63.3046 458.765,-53.0705 466.79,-43.8613"/>
<polygon fill="grey" stroke="grey" stroke-width="2" points="469.618,-45.9429 473.55,-36.1043 464.341,-41.344 469.618,-45.9429"/>
</g>
<!-- 7&#45;&gt;8 -->
<g id="edge16" class="edge"><title>7&#45;&gt;8</title>
<path fill="none" stroke="grey" stroke-width="2" d="M814.969,-76.6138C810.51,-74.893 805.898,-73.2795 801.455,-72 704.03,-43.943 585.002,-28.8416 525.723,-22.5638"/>
<polygon fill="grey" stroke="grey" stroke-width="2" points="526.016,-19.0756 515.709,-21.5276 525.295,-26.0384 526.016,-19.0756"/>
</g>
<!-- 9 -->
<g id="node10" class="node"><title>9</title>
<path fill="none" stroke="#d8bc56" stroke-width="2" stroke-dasharray="5,2" d="M56.7697,-180C56.7697,-180 26.1399,-180 26.1399,-180 20.1399,-180 14.1399,-174 14.1399,-168 14.1399,-168 14.1399,-156 14.1399,-156 14.1399,-150 20.1399,-144 26.1399,-144 26.1399,-144 56.7697,-144 56.7697,-144 62.7697,-144 68.7697,-150 68.7697,-156 68.7697,-156 68.7697,-168 68.7697,-168 68.7697,-174 62.7697,-180 56.7697,-180"/>
<text text-anchor="middle" x="41.4548" y="-165" font-family="sans" font-size="10.00">qc_fastqc</text>
<text text-anchor="middle" x="41.4548" y="-153" font-family="sans" font-size="10.00">end: R1</text>
</g>
<!-- 9&#45;&gt;6 -->
<g id="edge4" class="edge"><title>9&#45;&gt;6</title>
<path fill="none" stroke="grey" stroke-width="2" d="M68.6146,-147.056C71.5488,-145.888 74.531,-144.837 77.4548,-144 206.85,-106.965 249.917,-140.511 384.412,-107.844"/>
<polygon fill="grey" stroke="grey" stroke-width="2" points="385.408,-111.203 394.256,-105.376 383.705,-104.413 385.408,-111.203"/>
</g>
<!-- 9&#45;&gt;8 -->
<g id="edge17" class="edge"><title>9&#45;&gt;8</title>
<path fill="none" stroke="grey" stroke-width="2" d="M62.1414,-143.94C88.0982,-123.476 134.77,-89.7174 180.455,-72 273.512,-35.9104 391.868,-24.3204 451.114,-20.6553"/>
<polygon fill="grey" stroke="grey" stroke-width="2" points="451.347,-24.1478 461.128,-20.0772 450.943,-17.1594 451.347,-24.1478"/>
</g>
<!-- 9&#45;&gt;16 -->
<g id="edge35" class="edge"><title>9&#45;&gt;16</title>
<path fill="none" stroke="grey" stroke-width="2" d="M68.69,-147.3C71.6095,-146.085 74.5677,-144.956 77.4548,-144 152.346,-119.211 243.216,-104.073 296.458,-96.6343"/>
<polygon fill="grey" stroke="grey" stroke-width="2" points="297.155,-100.072 306.589,-95.2486 296.207,-93.1362 297.155,-100.072"/>
</g>
<!-- 10&#45;&gt;8 -->
<g id="edge18" class="edge"><title>10&#45;&gt;8</title>
<path fill="none" stroke="grey" stroke-width="2" d="M44.3867,-219.93C29.5849,-210.369 13.6475,-196.935 5.4548,-180 -1.51299,-165.597 -1.97091,-158.172 5.4548,-144 31.5461,-94.203 57.0867,-92.4469 109.455,-72 228.071,-25.6867 381.513,-19.0134 451.147,-18.5844"/>
<polygon fill="grey" stroke="grey" stroke-width="2" points="451.2,-22.0844 461.193,-18.5631 451.185,-15.0844 451.2,-22.0844"/>
</g>
<!-- 10&#45;&gt;9 -->
<g id="edge28" class="edge"><title>10&#45;&gt;9</title>
<path fill="none" stroke="grey" stroke-width="2" d="M69.1052,-219.837C64.6978,-210.777 59.1946,-199.465 54.2607,-189.323"/>
<polygon fill="grey" stroke="grey" stroke-width="2" points="57.2812,-187.531 49.7591,-180.07 50.9865,-190.594 57.2812,-187.531"/>
</g>
<!-- 13 -->
<g id="node14" class="node"><title>13</title>
<path fill="none" stroke="#d8bc56" stroke-width="2" stroke-dasharray="5,2" d="M128.77,-180C128.77,-180 98.1399,-180 98.1399,-180 92.1399,-180 86.1399,-174 86.1399,-168 86.1399,-168 86.1399,-156 86.1399,-156 86.1399,-150 92.1399,-144 98.1399,-144 98.1399,-144 128.77,-144 128.77,-144 134.77,-144 140.77,-150 140.77,-156 140.77,-156 140.77,-168 140.77,-168 140.77,-174 134.77,-180 128.77,-180"/>
<text text-anchor="middle" x="113.455" y="-165" font-family="sans" font-size="10.00">qc_fastqc</text>
<text text-anchor="middle" x="113.455" y="-153" font-family="sans" font-size="10.00">end: R2</text>
</g>
<!-- 10&#45;&gt;13 -->
<g id="edge32" class="edge"><title>10&#45;&gt;13</title>
<path fill="none" stroke="grey" stroke-width="2" d="M85.8044,-219.837C90.2118,-210.777 95.715,-199.465 100.649,-189.323"/>
<polygon fill="grey" stroke="grey" stroke-width="2" points="103.923,-190.594 105.15,-180.07 97.6284,-187.531 103.923,-190.594"/>
</g>
<!-- 11&#45;&gt;6 -->
<g id="edge5" class="edge"><title>11&#45;&gt;6</title>
<path fill="none" stroke="grey" stroke-width="2" d="M496.713,-143.697C485.015,-134.796 470.594,-123.823 457.945,-114.199"/>
<polygon fill="grey" stroke="grey" stroke-width="2" points="460.012,-111.374 449.935,-108.104 455.774,-116.945 460.012,-111.374"/>
</g>
<!-- 11&#45;&gt;8 -->
<g id="edge19" class="edge"><title>11&#45;&gt;8</title>
<path fill="none" stroke="grey" stroke-width="2" d="M516.546,-143.865C513.41,-125.889 508.103,-96.85 502.455,-72 500.527,-63.5172 498.191,-54.3352 495.984,-46.0347"/>
<polygon fill="grey" stroke="grey" stroke-width="2" points="499.289,-44.8495 493.298,-36.1112 492.532,-46.6783 499.289,-44.8495"/>
</g>
<!-- 11&#45;&gt;16 -->
<g id="edge36" class="edge"><title>11&#45;&gt;16</title>
<path fill="none" stroke="grey" stroke-width="2" d="M492.051,-147.751C489.164,-146.448 486.26,-145.175 483.455,-144 443.414,-127.231 430.523,-124.65 386.14,-108.206"/>
<polygon fill="grey" stroke="grey" stroke-width="2" points="387.092,-104.825 376.499,-104.6 384.64,-111.381 387.092,-104.825"/>
</g>
<!-- 12&#45;&gt;8 -->
<g id="edge21" class="edge"><title>12&#45;&gt;8</title>
<path fill="none" stroke="grey" stroke-width="2" d="M887.851,-74.244C884.685,-73.43 881.532,-72.6717 878.455,-72 750.504,-44.0721 595.539,-28.2547 525.729,-22.0682"/>
<polygon fill="grey" stroke="grey" stroke-width="2" points="525.932,-18.5728 515.666,-21.1913 525.324,-25.5463 525.932,-18.5728"/>
</g>
<!-- 13&#45;&gt;6 -->
<g id="edge6" class="edge"><title>13&#45;&gt;6</title>
<path fill="none" stroke="grey" stroke-width="2" d="M140.646,-147.161C143.574,-145.973 146.546,-144.888 149.455,-144 247.862,-113.96 281.126,-134.748 384.351,-107.92"/>
<polygon fill="grey" stroke="grey" stroke-width="2" points="385.479,-111.242 394.227,-105.266 383.661,-104.481 385.479,-111.242"/>
</g>
<!-- 13&#45;&gt;8 -->
<g id="edge20" class="edge"><title>13&#45;&gt;8</title>
<path fill="none" stroke="grey" stroke-width="2" d="M133.152,-143.844C157.435,-123.605 200.749,-90.3931 243.455,-72 313.274,-41.9292 401.884,-28.2191 451.133,-22.5433"/>
<polygon fill="grey" stroke="grey" stroke-width="2" points="451.759,-25.9956 461.315,-21.4204 450.991,-19.0377 451.759,-25.9956"/>
</g>
<!-- 13&#45;&gt;16 -->
<g id="edge37" class="edge"><title>13&#45;&gt;16</title>
<path fill="none" stroke="grey" stroke-width="2" d="M140.764,-147.51C143.669,-146.254 146.604,-145.058 149.455,-144 198.814,-125.688 257.372,-110.411 296.729,-101.037"/>
<polygon fill="grey" stroke="grey" stroke-width="2" points="297.62,-104.423 306.552,-98.7244 296.016,-97.6088 297.62,-104.423"/>
</g>
<!-- 14&#45;&gt;6 -->
<g id="edge8" class="edge"><title>14&#45;&gt;6</title>
<path fill="none" stroke="grey" stroke-width="2" d="M252.244,-146.47C255.02,-145.629 257.773,-144.8 260.455,-144 312.931,-128.335 329.118,-126.978 384.48,-108.173"/>
<polygon fill="grey" stroke="grey" stroke-width="2" points="385.784,-111.426 394.103,-104.865 383.508,-104.806 385.784,-111.426"/>
</g>
<!-- 14&#45;&gt;8 -->
<g id="edge23" class="edge"><title>14&#45;&gt;8</title>
<path fill="none" stroke="grey" stroke-width="2" d="M216.451,-143.845C230.323,-123.608 256.074,-90.3979 286.455,-72 338.346,-40.576 408.697,-27.5883 451.21,-22.361"/>
<polygon fill="grey" stroke="grey" stroke-width="2" points="451.855,-25.8101 461.391,-21.1927 451.057,-18.8557 451.855,-25.8101"/>
</g>
<!-- 14&#45;&gt;16 -->
<g id="edge39" class="edge"><title>14&#45;&gt;16</title>
<path fill="none" stroke="grey" stroke-width="2" d="M238.724,-143.876C256.918,-134.512 279.646,-122.814 299.095,-112.803"/>
<polygon fill="grey" stroke="grey" stroke-width="2" points="300.768,-115.878 308.058,-108.19 297.564,-109.654 300.768,-115.878"/>
</g>
<!-- 15&#45;&gt;6 -->
<g id="edge9" class="edge"><title>15&#45;&gt;6</title>
<path fill="none" stroke="grey" stroke-width="2" d="M343.608,-143.876C357.987,-134.808 375.836,-123.552 391.365,-113.759"/>
<polygon fill="grey" stroke="grey" stroke-width="2" points="393.605,-116.484 400.197,-108.19 389.871,-110.564 393.605,-116.484"/>
</g>
<!-- 15&#45;&gt;8 -->
<g id="edge24" class="edge"><title>15&#45;&gt;8</title>
<path fill="none" stroke="grey" stroke-width="2" d="M305.372,-143.824C294.437,-124.478 281.486,-93.0039 297.455,-72 315.976,-47.6398 400.948,-31.5468 451.101,-23.9914"/>
<polygon fill="grey" stroke="grey" stroke-width="2" points="451.85,-27.4192 461.238,-22.5089 450.837,-20.4929 451.85,-27.4192"/>
</g>
<!-- 15&#45;&gt;16 -->
<g id="edge40" class="edge"><title>15&#45;&gt;16</title>
<path fill="none" stroke="grey" stroke-width="2" d="M322.635,-143.697C325.45,-135.813 328.846,-126.304 331.974,-117.546"/>
<polygon fill="grey" stroke="grey" stroke-width="2" points="335.279,-118.699 335.346,-108.104 328.687,-116.345 335.279,-118.699"/>
</g>
<!-- 16&#45;&gt;8 -->
<g id="edge25" class="edge"><title>16&#45;&gt;8</title>
<path fill="none" stroke="grey" stroke-width="2" d="M376.292,-72.411C399.126,-61.5376 428.919,-47.3501 452.061,-36.3305"/>
<polygon fill="grey" stroke="grey" stroke-width="2" points="453.688,-39.4324 461.211,-31.973 450.678,-33.1124 453.688,-39.4324"/>
</g>
<!-- 17&#45;&gt;6 -->
<g id="edge11" class="edge"><title>17&#45;&gt;6</title>
<path fill="none" stroke="grey" stroke-width="2" d="M636.741,-146.683C633.602,-145.763 630.485,-144.861 627.455,-144 573.464,-128.656 510.87,-112.298 470.29,-101.88"/>
<polygon fill="grey" stroke="grey" stroke-width="2" points="471.022,-98.4542 460.466,-99.3632 469.285,-105.235 471.022,-98.4542"/>
</g>
<!-- 17&#45;&gt;8 -->
<g id="edge26" class="edge"><title>17&#45;&gt;8</title>
<path fill="none" stroke="grey" stroke-width="2" d="M659.933,-143.871C625.089,-118.497 559.663,-70.8544 520.476,-42.3181"/>
<polygon fill="grey" stroke="grey" stroke-width="2" points="522.204,-39.2466 512.06,-36.1893 518.083,-44.9053 522.204,-39.2466"/>
</g>
<!-- 17&#45;&gt;16 -->
<g id="edge42" class="edge"><title>17&#45;&gt;16</title>
<path fill="none" stroke="grey" stroke-width="2" d="M636.841,-146.289C633.678,-145.464 630.528,-144.691 627.455,-144 524.473,-120.841 492.458,-134.883 386.124,-107.823"/>
<polygon fill="grey" stroke="grey" stroke-width="2" points="386.848,-104.395 376.289,-105.259 385.082,-111.169 386.848,-104.395"/>
</g>
<!-- 18&#45;&gt;6 -->
<g id="edge10" class="edge"><title>18&#45;&gt;6</title>
<path fill="none" stroke="grey" stroke-width="2" d="M564.001,-147.867C561.124,-146.542 558.236,-145.231 555.455,-144 527.206,-131.491 495.08,-118.191 470.08,-108.044"/>
<polygon fill="grey" stroke="grey" stroke-width="2" points="471.109,-104.685 460.526,-104.179 468.484,-111.174 471.109,-104.685"/>
</g>
<!-- 18&#45;&gt;8 -->
<g id="edge27" class="edge"><title>18&#45;&gt;8</title>
<path fill="none" stroke="grey" stroke-width="2" d="M579.031,-143.871C561.09,-119.137 527.8,-73.2424 506.96,-44.5121"/>
<polygon fill="grey" stroke="grey" stroke-width="2" points="509.628,-42.229 500.923,-36.1893 503.961,-46.3391 509.628,-42.229"/>
</g>
<!-- 18&#45;&gt;16 -->
<g id="edge41" class="edge"><title>18&#45;&gt;16</title>
<path fill="none" stroke="grey" stroke-width="2" d="M564.209,-147.331C561.292,-146.11 558.337,-144.971 555.455,-144 485.267,-120.356 461.443,-129.174 386.278,-107.953"/>
<polygon fill="grey" stroke="grey" stroke-width="2" points="386.924,-104.496 376.344,-105.06 384.967,-111.216 386.924,-104.496"/>
</g>
</g>
</svg>
