<?xml version="1.0" encoding="UTF-8" standalone="no"?>
<!DOCTYPE svg PUBLIC "-//W3C//DTD SVG 1.1//EN"
 "http://www.w3.org/Graphics/SVG/1.1/DTD/svg11.dtd">
<!-- Generated by graphviz version 2.26.0 (20091210.2329)
 -->
<!-- Title: snakemake_dag Pages: 1 -->
<svg width="717pt" height="776pt"
 viewBox="0.00 0.00 716.54 776.00" xmlns="http://www.w3.org/2000/svg" xmlns:xlink="http://www.w3.org/1999/xlink">
<g id="graph1" class="graph" transform="scale(1 1) rotate(0) translate(4 772)">
<title>snakemake_dag</title>
<polygon fill="white" stroke="white" points="-4,5 -4,-772 713.538,-772 713.538,5 -4,5"/>
<!-- 0 -->
<g id="node1" class="node"><title>0</title>
<polyline fill="none" stroke="#568ad8" stroke-width="2" stroke-dasharray="5,2" points="484.67,-767.5 396.67,-767.5 "/>
<path fill="none" stroke="#568ad8" stroke-width="2" stroke-dasharray="5,2" d="M396.67,-767.5C390.67,-767.5 384.67,-761.5 384.67,-755.5"/>
<polyline fill="none" stroke="#568ad8" stroke-width="2" stroke-dasharray="5,2" points="384.67,-755.5 384.67,-732.5 "/>
<path fill="none" stroke="#568ad8" stroke-width="2" stroke-dasharray="5,2" d="M384.67,-732.5C384.67,-726.5 390.67,-720.5 396.67,-720.5"/>
<polyline fill="none" stroke="#568ad8" stroke-width="2" stroke-dasharray="5,2" points="396.67,-720.5 484.67,-720.5 "/>
<path fill="none" stroke="#568ad8" stroke-width="2" stroke-dasharray="5,2" d="M484.67,-720.5C490.67,-720.5 496.67,-726.5 496.67,-732.5"/>
<polyline fill="none" stroke="#568ad8" stroke-width="2" stroke-dasharray="5,2" points="496.67,-732.5 496.67,-755.5 "/>
<path fill="none" stroke="#568ad8" stroke-width="2" stroke-dasharray="5,2" d="M496.67,-755.5C496.67,-761.5 490.67,-767.5 484.67,-767.5"/>
<text text-anchor="middle" x="440.67" y="-754.5" font-family="sans" font-size="10.00">raw_make_links_pe</text>
<text text-anchor="middle" x="440.67" y="-741.5" font-family="sans" font-size="10.00">run: Run1</text>
<text text-anchor="middle" x="440.67" y="-728.5" font-family="sans" font-size="10.00">sample: sample1</text>
</g>
<!-- 19 -->
<g id="node20" class="node"><title>19</title>
<polyline fill="none" stroke="#bed856" stroke-width="2" stroke-dasharray="5,2" points="487.67,-684 393.67,-684 "/>
<path fill="none" stroke="#bed856" stroke-width="2" stroke-dasharray="5,2" d="M393.67,-684C387.67,-684 381.67,-678 381.67,-672"/>
<polyline fill="none" stroke="#bed856" stroke-width="2" stroke-dasharray="5,2" points="381.67,-672 381.67,-660 "/>
<path fill="none" stroke="#bed856" stroke-width="2" stroke-dasharray="5,2" d="M381.67,-660C381.67,-654 387.67,-648 393.67,-648"/>
<polyline fill="none" stroke="#bed856" stroke-width="2" stroke-dasharray="5,2" points="393.67,-648 487.67,-648 "/>
<path fill="none" stroke="#bed856" stroke-width="2" stroke-dasharray="5,2" d="M487.67,-648C493.67,-648 499.67,-654 499.67,-660"/>
<polyline fill="none" stroke="#bed856" stroke-width="2" stroke-dasharray="5,2" points="499.67,-660 499.67,-672 "/>
<path fill="none" stroke="#bed856" stroke-width="2" stroke-dasharray="5,2" d="M499.67,-672C499.67,-678 493.67,-684 487.67,-684"/>
<text text-anchor="middle" x="440.67" y="-663.5" font-family="sans" font-size="10.00">qc_trimmomatic_pe</text>
</g>
<!-- 0&#45;&gt;19 -->
<g id="edge42" class="edge"><title>0&#45;&gt;19</title>
<path fill="none" stroke="grey" stroke-width="2" d="M440.67,-720.174C440.67,-712.109 440.67,-703.02 440.67,-694.622"/>
<polygon fill="grey" stroke="grey" points="444.17,-694.485 440.67,-684.485 437.17,-694.485 444.17,-694.485"/>
</g>
<!-- 1 -->
<g id="node2" class="node"><title>1</title>
<polyline fill="none" stroke="#d8bc56" stroke-width="2" stroke-dasharray="5,2" points="448.67,-540 336.67,-540 "/>
<path fill="none" stroke="#d8bc56" stroke-width="2" stroke-dasharray="5,2" d="M336.67,-540C330.67,-540 324.67,-534 324.67,-528"/>
<polyline fill="none" stroke="#d8bc56" stroke-width="2" stroke-dasharray="5,2" points="324.67,-528 324.67,-516 "/>
<path fill="none" stroke="#d8bc56" stroke-width="2" stroke-dasharray="5,2" d="M324.67,-516C324.67,-510 330.67,-504 336.67,-504"/>
<polyline fill="none" stroke="#d8bc56" stroke-width="2" stroke-dasharray="5,2" points="336.67,-504 448.67,-504 "/>
<path fill="none" stroke="#d8bc56" stroke-width="2" stroke-dasharray="5,2" d="M448.67,-504C454.67,-504 460.67,-510 460.67,-516"/>
<polyline fill="none" stroke="#d8bc56" stroke-width="2" stroke-dasharray="5,2" points="460.67,-516 460.67,-528 "/>
<path fill="none" stroke="#d8bc56" stroke-width="2" stroke-dasharray="5,2" d="M460.67,-528C460.67,-534 454.67,-540 448.67,-540"/>
<text text-anchor="middle" x="392.67" y="-519.5" font-family="sans" font-size="10.00">metaphlan2_sample_pe</text>
</g>
<!-- 23 -->
<g id="node24" class="node"><title>23</title>
<polyline fill="none" stroke="#56a2d8" stroke-width="2" stroke-dasharray="5,2" points="362.67,-468 268.67,-468 "/>
<path fill="none" stroke="#56a2d8" stroke-width="2" stroke-dasharray="5,2" d="M268.67,-468C262.67,-468 256.67,-462 256.67,-456"/>
<polyline fill="none" stroke="#56a2d8" stroke-width="2" stroke-dasharray="5,2" points="256.67,-456 256.67,-444 "/>
<path fill="none" stroke="#56a2d8" stroke-width="2" stroke-dasharray="5,2" d="M256.67,-444C256.67,-438 262.67,-432 268.67,-432"/>
<polyline fill="none" stroke="#56a2d8" stroke-width="2" stroke-dasharray="5,2" points="268.67,-432 362.67,-432 "/>
<path fill="none" stroke="#56a2d8" stroke-width="2" stroke-dasharray="5,2" d="M362.67,-432C368.67,-432 374.67,-438 374.67,-444"/>
<polyline fill="none" stroke="#56a2d8" stroke-width="2" stroke-dasharray="5,2" points="374.67,-444 374.67,-456 "/>
<path fill="none" stroke="#56a2d8" stroke-width="2" stroke-dasharray="5,2" d="M374.67,-456C374.67,-462 368.67,-468 362.67,-468"/>
<text text-anchor="middle" x="315.67" y="-447.5" font-family="sans" font-size="10.00">combine_metaphlan</text>
</g>
<!-- 1&#45;&gt;23 -->
<g id="edge68" class="edge"><title>1&#45;&gt;23</title>
<path fill="none" stroke="grey" stroke-width="2" d="M373.24,-503.831C363.938,-495.134 352.65,-484.578 342.542,-475.127"/>
<polygon fill="grey" stroke="grey" points="344.789,-472.436 335.094,-468.163 340.008,-477.549 344.789,-472.436"/>
</g>
<!-- 2 -->
<g id="node3" class="node"><title>2</title>
<polyline fill="none" stroke="#d86e56" stroke-width="2" points="414.67,-108 262.67,-108 "/>
<path fill="none" stroke="#d86e56" stroke-width="2" d="M262.67,-108C256.67,-108 250.67,-102 250.67,-96"/>
<polyline fill="none" stroke="#d86e56" stroke-width="2" points="250.67,-96 250.67,-84 "/>
<path fill="none" stroke="#d86e56" stroke-width="2" d="M250.67,-84C250.67,-78 256.67,-72 262.67,-72"/>
<polyline fill="none" stroke="#d86e56" stroke-width="2" points="262.67,-72 414.67,-72 "/>
<path fill="none" stroke="#d86e56" stroke-width="2" d="M414.67,-72C420.67,-72 426.67,-78 426.67,-84"/>
<polyline fill="none" stroke="#d86e56" stroke-width="2" points="426.67,-84 426.67,-96 "/>
<path fill="none" stroke="#d86e56" stroke-width="2" d="M426.67,-96C426.67,-102 420.67,-108 414.67,-108"/>
<text text-anchor="middle" x="338.67" y="-94" font-family="sans" font-size="10.00">humann2_split_stratified_tables</text>
<text text-anchor="middle" x="338.67" y="-81" font-family="sans" font-size="10.00">mapped: mapped</text>
</g>
<!-- 22 -->
<g id="node23" class="node"><title>22</title>
<polyline fill="none" stroke="#56d8a2" stroke-width="2" points="415.67,-36 377.67,-36 "/>
<path fill="none" stroke="#56d8a2" stroke-width="2" d="M377.67,-36C371.67,-36 365.67,-30 365.67,-24"/>
<polyline fill="none" stroke="#56d8a2" stroke-width="2" points="365.67,-24 365.67,-12 "/>
<path fill="none" stroke="#56d8a2" stroke-width="2" d="M365.67,-12C365.67,-6 371.67,-1.63883e-14 377.67,-1.50131e-14"/>
<polyline fill="none" stroke="#56d8a2" stroke-width="2" points="377.67,-1.50131e-14 415.67,-6.3032e-15 "/>
<path fill="none" stroke="#56d8a2" stroke-width="2" d="M415.67,-6.3032e-15C421.67,-4.92796e-15 427.67,-6 427.67,-12"/>
<polyline fill="none" stroke="#56d8a2" stroke-width="2" points="427.67,-12 427.67,-24 "/>
<path fill="none" stroke="#56d8a2" stroke-width="2" d="M427.67,-24C427.67,-30 421.67,-36 415.67,-36"/>
<text text-anchor="middle" x="396.67" y="-15.5" font-family="sans" font-size="10.00">humann2</text>
</g>
<!-- 2&#45;&gt;22 -->
<g id="edge60" class="edge"><title>2&#45;&gt;22</title>
<path fill="none" stroke="grey" stroke-width="2" d="M353.306,-71.8314C359.986,-63.5386 368.027,-53.557 375.36,-44.4533"/>
<polygon fill="grey" stroke="grey" points="378.289,-46.3965 381.837,-36.4133 372.838,-42.0052 378.289,-46.3965"/>
</g>
<!-- 3 -->
<g id="node4" class="node"><title>3</title>
<polyline fill="none" stroke="#d86e56" stroke-width="2" points="464.67,-180 312.67,-180 "/>
<path fill="none" stroke="#d86e56" stroke-width="2" d="M312.67,-180C306.67,-180 300.67,-174 300.67,-168"/>
<polyline fill="none" stroke="#d86e56" stroke-width="2" points="300.67,-168 300.67,-156 "/>
<path fill="none" stroke="#d86e56" stroke-width="2" d="M300.67,-156C300.67,-150 306.67,-144 312.67,-144"/>
<polyline fill="none" stroke="#d86e56" stroke-width="2" points="312.67,-144 464.67,-144 "/>
<path fill="none" stroke="#d86e56" stroke-width="2" d="M464.67,-144C470.67,-144 476.67,-150 476.67,-156"/>
<polyline fill="none" stroke="#d86e56" stroke-width="2" points="476.67,-156 476.67,-168 "/>
<path fill="none" stroke="#d86e56" stroke-width="2" d="M476.67,-168C476.67,-174 470.67,-180 464.67,-180"/>
<text text-anchor="middle" x="388.67" y="-166" font-family="sans" font-size="10.00">humann2_split_stratified_tables</text>
<text text-anchor="middle" x="388.67" y="-153" font-family="sans" font-size="10.00">mapped: all</text>
</g>
<!-- 3&#45;&gt;22 -->
<g id="edge64" class="edge"><title>3&#45;&gt;22</title>
<path fill="none" stroke="grey" stroke-width="2" d="M410.437,-143.816C420.142,-134.282 430.53,-121.735 435.67,-108 441.278,-93.015 440.593,-87.2239 435.67,-72 432.501,-62.2001 426.817,-52.6831 420.751,-44.4383"/>
<polygon fill="grey" stroke="grey" points="423.317,-42.0398 414.381,-36.3483 417.817,-46.3703 423.317,-42.0398"/>
</g>
<!-- 4 -->
<g id="node5" class="node"><title>4</title>
<polyline fill="none" stroke="#568ad8" stroke-width="2" stroke-dasharray="5,2" points="234.67,-767.5 146.67,-767.5 "/>
<path fill="none" stroke="#568ad8" stroke-width="2" stroke-dasharray="5,2" d="M146.67,-767.5C140.67,-767.5 134.67,-761.5 134.67,-755.5"/>
<polyline fill="none" stroke="#568ad8" stroke-width="2" stroke-dasharray="5,2" points="134.67,-755.5 134.67,-732.5 "/>
<path fill="none" stroke="#568ad8" stroke-width="2" stroke-dasharray="5,2" d="M134.67,-732.5C134.67,-726.5 140.67,-720.5 146.67,-720.5"/>
<polyline fill="none" stroke="#568ad8" stroke-width="2" stroke-dasharray="5,2" points="146.67,-720.5 234.67,-720.5 "/>
<path fill="none" stroke="#568ad8" stroke-width="2" stroke-dasharray="5,2" d="M234.67,-720.5C240.67,-720.5 246.67,-726.5 246.67,-732.5"/>
<polyline fill="none" stroke="#568ad8" stroke-width="2" stroke-dasharray="5,2" points="246.67,-732.5 246.67,-755.5 "/>
<path fill="none" stroke="#568ad8" stroke-width="2" stroke-dasharray="5,2" d="M246.67,-755.5C246.67,-761.5 240.67,-767.5 234.67,-767.5"/>
<text text-anchor="middle" x="190.67" y="-754.5" font-family="sans" font-size="10.00">raw_make_links_pe</text>
<text text-anchor="middle" x="190.67" y="-741.5" font-family="sans" font-size="10.00">run: Run1</text>
<text text-anchor="middle" x="190.67" y="-728.5" font-family="sans" font-size="10.00">sample: sample2</text>
</g>
<!-- 20 -->
<g id="node21" class="node"><title>20</title>
<polyline fill="none" stroke="#bed856" stroke-width="2" stroke-dasharray="5,2" points="237.67,-684 143.67,-684 "/>
<path fill="none" stroke="#bed856" stroke-width="2" stroke-dasharray="5,2" d="M143.67,-684C137.67,-684 131.67,-678 131.67,-672"/>
<polyline fill="none" stroke="#bed856" stroke-width="2" stroke-dasharray="5,2" points="131.67,-672 131.67,-660 "/>
<path fill="none" stroke="#bed856" stroke-width="2" stroke-dasharray="5,2" d="M131.67,-660C131.67,-654 137.67,-648 143.67,-648"/>
<polyline fill="none" stroke="#bed856" stroke-width="2" stroke-dasharray="5,2" points="143.67,-648 237.67,-648 "/>
<path fill="none" stroke="#bed856" stroke-width="2" stroke-dasharray="5,2" d="M237.67,-648C243.67,-648 249.67,-654 249.67,-660"/>
<polyline fill="none" stroke="#bed856" stroke-width="2" stroke-dasharray="5,2" points="249.67,-660 249.67,-672 "/>
<path fill="none" stroke="#bed856" stroke-width="2" stroke-dasharray="5,2" d="M249.67,-672C249.67,-678 243.67,-684 237.67,-684"/>
<text text-anchor="middle" x="190.67" y="-663.5" font-family="sans" font-size="10.00">qc_trimmomatic_pe</text>
</g>
<!-- 4&#45;&gt;20 -->
<g id="edge44" class="edge"><title>4&#45;&gt;20</title>
<path fill="none" stroke="grey" stroke-width="2" d="M190.67,-720.174C190.67,-712.109 190.67,-703.02 190.67,-694.622"/>
<polygon fill="grey" stroke="grey" points="194.17,-694.485 190.67,-684.485 187.17,-694.485 194.17,-694.485"/>
</g>
<!-- 5 -->
<g id="node6" class="node"><title>5</title>
<polyline fill="none" stroke="#56d873" stroke-width="2" points="136.67,-324 20.6701,-324 "/>
<path fill="none" stroke="#56d873" stroke-width="2" d="M20.6701,-324C14.6701,-324 8.67009,-318 8.67009,-312"/>
<polyline fill="none" stroke="#56d873" stroke-width="2" points="8.67009,-312 8.67009,-300 "/>
<path fill="none" stroke="#56d873" stroke-width="2" d="M8.67009,-300C8.67009,-294 14.6701,-288 20.6701,-288"/>
<polyline fill="none" stroke="#56d873" stroke-width="2" points="20.6701,-288 136.67,-288 "/>
<path fill="none" stroke="#56d873" stroke-width="2" d="M136.67,-288C142.67,-288 148.67,-294 148.67,-300"/>
<polyline fill="none" stroke="#56d873" stroke-width="2" points="148.67,-300 148.67,-312 "/>
<path fill="none" stroke="#56d873" stroke-width="2" d="M148.67,-312C148.67,-318 142.67,-324 136.67,-324"/>
<text text-anchor="middle" x="78.6701" y="-310" font-family="sans" font-size="10.00">humann2_renorm_tables</text>
<text text-anchor="middle" x="78.6701" y="-297" font-family="sans" font-size="10.00">norm: cpm</text>
</g>
<!-- 21 -->
<g id="node22" class="node"><title>21</title>
<polyline fill="none" stroke="#a7d856" stroke-width="2" points="226.67,-252 104.67,-252 "/>
<path fill="none" stroke="#a7d856" stroke-width="2" d="M104.67,-252C98.6701,-252 92.6701,-246 92.6701,-240"/>
<polyline fill="none" stroke="#a7d856" stroke-width="2" points="92.6701,-240 92.6701,-228 "/>
<path fill="none" stroke="#a7d856" stroke-width="2" d="M92.6701,-228C92.6701,-222 98.6701,-216 104.67,-216"/>
<polyline fill="none" stroke="#a7d856" stroke-width="2" points="104.67,-216 226.67,-216 "/>
<path fill="none" stroke="#a7d856" stroke-width="2" d="M226.67,-216C232.67,-216 238.67,-222 238.67,-228"/>
<polyline fill="none" stroke="#a7d856" stroke-width="2" points="238.67,-228 238.67,-240 "/>
<path fill="none" stroke="#a7d856" stroke-width="2" d="M238.67,-240C238.67,-246 232.67,-252 226.67,-252"/>
<text text-anchor="middle" x="165.67" y="-231.5" font-family="sans" font-size="10.00">humann2_combine_tables</text>
</g>
<!-- 5&#45;&gt;21 -->
<g id="edge46" class="edge"><title>5&#45;&gt;21</title>
<path fill="none" stroke="grey" stroke-width="2" d="M100.624,-287.831C111.34,-278.963 124.389,-268.164 135.979,-258.572"/>
<polygon fill="grey" stroke="grey" points="138.251,-261.235 143.723,-252.163 133.788,-255.842 138.251,-261.235"/>
</g>
<!-- 5&#45;&gt;22 -->
<g id="edge52" class="edge"><title>5&#45;&gt;22</title>
<path fill="none" stroke="grey" stroke-width="2" d="M64.8136,-287.734C33.6523,-244.324 -34.8877,-133.987 22.6701,-72 45.1019,-47.8421 262.876,-28.3298 355.41,-21.061"/>
<polygon fill="grey" stroke="grey" points="355.833,-24.5388 365.532,-20.2756 355.291,-17.5598 355.833,-24.5388"/>
</g>
<!-- 6 -->
<g id="node7" class="node"><title>6</title>
<polyline fill="none" stroke="#d86e56" stroke-width="2" points="220.67,-108 68.6701,-108 "/>
<path fill="none" stroke="#d86e56" stroke-width="2" d="M68.6701,-108C62.6701,-108 56.6701,-102 56.6701,-96"/>
<polyline fill="none" stroke="#d86e56" stroke-width="2" points="56.6701,-96 56.6701,-84 "/>
<path fill="none" stroke="#d86e56" stroke-width="2" d="M56.6701,-84C56.6701,-78 62.6701,-72 68.6701,-72"/>
<polyline fill="none" stroke="#d86e56" stroke-width="2" points="68.6701,-72 220.67,-72 "/>
<path fill="none" stroke="#d86e56" stroke-width="2" d="M220.67,-72C226.67,-72 232.67,-78 232.67,-84"/>
<polyline fill="none" stroke="#d86e56" stroke-width="2" points="232.67,-84 232.67,-96 "/>
<path fill="none" stroke="#d86e56" stroke-width="2" d="M232.67,-96C232.67,-102 226.67,-108 220.67,-108"/>
<text text-anchor="middle" x="144.67" y="-94" font-family="sans" font-size="10.00">humann2_split_stratified_tables</text>
<text text-anchor="middle" x="144.67" y="-81" font-family="sans" font-size="10.00">mapped: all</text>
</g>
<!-- 6&#45;&gt;22 -->
<g id="edge58" class="edge"><title>6&#45;&gt;22</title>
<path fill="none" stroke="grey" stroke-width="2" d="M207.935,-71.9243C254.305,-58.6758 315.894,-41.079 355.901,-29.6483"/>
<polygon fill="grey" stroke="grey" points="356.931,-32.9941 365.585,-26.8815 355.008,-26.2634 356.931,-32.9941"/>
</g>
<!-- 7 -->
<g id="node8" class="node"><title>7</title>
<polyline fill="none" stroke="#d85656" stroke-width="2" points="646.67,-180 506.67,-180 "/>
<path fill="none" stroke="#d85656" stroke-width="2" d="M506.67,-180C500.67,-180 494.67,-174 494.67,-168"/>
<polyline fill="none" stroke="#d85656" stroke-width="2" points="494.67,-168 494.67,-156 "/>
<path fill="none" stroke="#d85656" stroke-width="2" d="M494.67,-156C494.67,-150 500.67,-144 506.67,-144"/>
<polyline fill="none" stroke="#d85656" stroke-width="2" points="506.67,-144 646.67,-144 "/>
<path fill="none" stroke="#d85656" stroke-width="2" d="M646.67,-144C652.67,-144 658.67,-150 658.67,-156"/>
<polyline fill="none" stroke="#d85656" stroke-width="2" points="658.67,-156 658.67,-168 "/>
<path fill="none" stroke="#d85656" stroke-width="2" d="M658.67,-168C658.67,-174 652.67,-180 646.67,-180"/>
<text text-anchor="middle" x="576.67" y="-159.5" font-family="sans" font-size="10.00">humann2_remove_unmapped</text>
</g>
<!-- 8 -->
<g id="node9" class="node"><title>8</title>
<polyline fill="none" stroke="#d86e56" stroke-width="2" points="646.67,-108 494.67,-108 "/>
<path fill="none" stroke="#d86e56" stroke-width="2" d="M494.67,-108C488.67,-108 482.67,-102 482.67,-96"/>
<polyline fill="none" stroke="#d86e56" stroke-width="2" points="482.67,-96 482.67,-84 "/>
<path fill="none" stroke="#d86e56" stroke-width="2" d="M482.67,-84C482.67,-78 488.67,-72 494.67,-72"/>
<polyline fill="none" stroke="#d86e56" stroke-width="2" points="494.67,-72 646.67,-72 "/>
<path fill="none" stroke="#d86e56" stroke-width="2" d="M646.67,-72C652.67,-72 658.67,-78 658.67,-84"/>
<polyline fill="none" stroke="#d86e56" stroke-width="2" points="658.67,-84 658.67,-96 "/>
<path fill="none" stroke="#d86e56" stroke-width="2" d="M658.67,-96C658.67,-102 652.67,-108 646.67,-108"/>
<text text-anchor="middle" x="570.67" y="-94" font-family="sans" font-size="10.00">humann2_split_stratified_tables</text>
<text text-anchor="middle" x="570.67" y="-81" font-family="sans" font-size="10.00">mapped: mapped</text>
</g>
<!-- 7&#45;&gt;8 -->
<g id="edge14" class="edge"><title>7&#45;&gt;8</title>
<path fill="none" stroke="grey" stroke-width="2" d="M575.156,-143.831C574.514,-136.131 573.751,-126.974 573.038,-118.417"/>
<polygon fill="grey" stroke="grey" points="576.523,-118.088 572.205,-108.413 569.547,-118.669 576.523,-118.088"/>
</g>
<!-- 8&#45;&gt;22 -->
<g id="edge62" class="edge"><title>8&#45;&gt;22</title>
<path fill="none" stroke="grey" stroke-width="2" d="M526.763,-71.8314C499.236,-60.4409 464.008,-45.8642 437.156,-34.7527"/>
<polygon fill="grey" stroke="grey" points="438.25,-31.4176 427.671,-30.8281 435.573,-37.8857 438.25,-31.4176"/>
</g>
<!-- 9 -->
<g id="node10" class="node"><title>9</title>
<polyline fill="none" stroke="#59d856" stroke-width="2" stroke-dasharray="5,2" points="471.67,-612 409.67,-612 "/>
<path fill="none" stroke="#59d856" stroke-width="2" stroke-dasharray="5,2" d="M409.67,-612C403.67,-612 397.67,-606 397.67,-600"/>
<polyline fill="none" stroke="#59d856" stroke-width="2" stroke-dasharray="5,2" points="397.67,-600 397.67,-588 "/>
<path fill="none" stroke="#59d856" stroke-width="2" stroke-dasharray="5,2" d="M397.67,-588C397.67,-582 403.67,-576 409.67,-576"/>
<polyline fill="none" stroke="#59d856" stroke-width="2" stroke-dasharray="5,2" points="409.67,-576 471.67,-576 "/>
<path fill="none" stroke="#59d856" stroke-width="2" stroke-dasharray="5,2" d="M471.67,-576C477.67,-576 483.67,-582 483.67,-588"/>
<polyline fill="none" stroke="#59d856" stroke-width="2" stroke-dasharray="5,2" points="483.67,-588 483.67,-600 "/>
<path fill="none" stroke="#59d856" stroke-width="2" stroke-dasharray="5,2" d="M483.67,-600C483.67,-606 477.67,-612 471.67,-612"/>
<text text-anchor="middle" x="440.67" y="-591.5" font-family="sans" font-size="10.00">host_filter_pe</text>
</g>
<!-- 9&#45;&gt;1 -->
<g id="edge2" class="edge"><title>9&#45;&gt;1</title>
<path fill="none" stroke="grey" stroke-width="2" d="M428.558,-575.831C423.142,-567.708 416.646,-557.964 410.678,-549.012"/>
<polygon fill="grey" stroke="grey" points="413.405,-546.792 404.946,-540.413 407.58,-550.675 413.405,-546.792"/>
</g>
<!-- 10 -->
<g id="node11" class="node"><title>10</title>
<polyline fill="none" stroke="#d6d856" stroke-width="2" points="475.67,-396 377.67,-396 "/>
<path fill="none" stroke="#d6d856" stroke-width="2" d="M377.67,-396C371.67,-396 365.67,-390 365.67,-384"/>
<polyline fill="none" stroke="#d6d856" stroke-width="2" points="365.67,-384 365.67,-372 "/>
<path fill="none" stroke="#d6d856" stroke-width="2" d="M365.67,-372C365.67,-366 371.67,-360 377.67,-360"/>
<polyline fill="none" stroke="#d6d856" stroke-width="2" points="377.67,-360 475.67,-360 "/>
<path fill="none" stroke="#d6d856" stroke-width="2" d="M475.67,-360C481.67,-360 487.67,-366 487.67,-372"/>
<polyline fill="none" stroke="#d6d856" stroke-width="2" points="487.67,-372 487.67,-384 "/>
<path fill="none" stroke="#d6d856" stroke-width="2" d="M487.67,-384C487.67,-390 481.67,-396 475.67,-396"/>
<text text-anchor="middle" x="426.67" y="-375.5" font-family="sans" font-size="10.00">humann2_sample_pe</text>
</g>
<!-- 9&#45;&gt;10 -->
<g id="edge20" class="edge"><title>9&#45;&gt;10</title>
<path fill="none" stroke="grey" stroke-width="2" d="M453.282,-575.942C459.547,-565.866 466.451,-552.797 469.67,-540 481.622,-492.484 459.249,-437.391 442.534,-405.244"/>
<polygon fill="grey" stroke="grey" points="445.609,-403.571 437.788,-396.424 439.445,-406.888 445.609,-403.571"/>
</g>
<!-- 12 -->
<g id="node13" class="node"><title>12</title>
<polyline fill="none" stroke="#56d873" stroke-width="2" points="477.67,-324 361.67,-324 "/>
<path fill="none" stroke="#56d873" stroke-width="2" d="M361.67,-324C355.67,-324 349.67,-318 349.67,-312"/>
<polyline fill="none" stroke="#56d873" stroke-width="2" points="349.67,-312 349.67,-300 "/>
<path fill="none" stroke="#56d873" stroke-width="2" d="M349.67,-300C349.67,-294 355.67,-288 361.67,-288"/>
<polyline fill="none" stroke="#56d873" stroke-width="2" points="361.67,-288 477.67,-288 "/>
<path fill="none" stroke="#56d873" stroke-width="2" d="M477.67,-288C483.67,-288 489.67,-294 489.67,-300"/>
<polyline fill="none" stroke="#56d873" stroke-width="2" points="489.67,-300 489.67,-312 "/>
<path fill="none" stroke="#56d873" stroke-width="2" d="M489.67,-312C489.67,-318 483.67,-324 477.67,-324"/>
<text text-anchor="middle" x="419.67" y="-310" font-family="sans" font-size="10.00">humann2_renorm_tables</text>
<text text-anchor="middle" x="419.67" y="-297" font-family="sans" font-size="10.00">norm: cpm</text>
</g>
<!-- 10&#45;&gt;12 -->
<g id="edge24" class="edge"><title>10&#45;&gt;12</title>
<path fill="none" stroke="grey" stroke-width="2" d="M424.904,-359.831C424.155,-352.131 423.265,-342.974 422.433,-334.417"/>
<polygon fill="grey" stroke="grey" points="425.912,-334.028 421.46,-324.413 418.944,-334.705 425.912,-334.028"/>
</g>
<!-- 18 -->
<g id="node19" class="node"><title>18</title>
<polyline fill="none" stroke="#56d873" stroke-width="2" points="635.67,-324 519.67,-324 "/>
<path fill="none" stroke="#56d873" stroke-width="2" d="M519.67,-324C513.67,-324 507.67,-318 507.67,-312"/>
<polyline fill="none" stroke="#56d873" stroke-width="2" points="507.67,-312 507.67,-300 "/>
<path fill="none" stroke="#56d873" stroke-width="2" d="M507.67,-300C507.67,-294 513.67,-288 519.67,-288"/>
<polyline fill="none" stroke="#56d873" stroke-width="2" points="519.67,-288 635.67,-288 "/>
<path fill="none" stroke="#56d873" stroke-width="2" d="M635.67,-288C641.67,-288 647.67,-294 647.67,-300"/>
<polyline fill="none" stroke="#56d873" stroke-width="2" points="647.67,-300 647.67,-312 "/>
<path fill="none" stroke="#56d873" stroke-width="2" d="M647.67,-312C647.67,-318 641.67,-324 635.67,-324"/>
<text text-anchor="middle" x="577.67" y="-310" font-family="sans" font-size="10.00">humann2_renorm_tables</text>
<text text-anchor="middle" x="577.67" y="-297" font-family="sans" font-size="10.00">norm: relab</text>
</g>
<!-- 10&#45;&gt;18 -->
<g id="edge40" class="edge"><title>10&#45;&gt;18</title>
<path fill="none" stroke="grey" stroke-width="2" d="M464.774,-359.831C484.79,-350.287 509.497,-338.506 530.689,-328.401"/>
<polygon fill="grey" stroke="grey" points="532.32,-331.501 539.84,-324.038 529.308,-325.183 532.32,-331.501"/>
</g>
<!-- 11 -->
<g id="node12" class="node"><title>11</title>
<polyline fill="none" stroke="#d8bc56" stroke-width="2" stroke-dasharray="5,2" points="294.67,-540 182.67,-540 "/>
<path fill="none" stroke="#d8bc56" stroke-width="2" stroke-dasharray="5,2" d="M182.67,-540C176.67,-540 170.67,-534 170.67,-528"/>
<polyline fill="none" stroke="#d8bc56" stroke-width="2" stroke-dasharray="5,2" points="170.67,-528 170.67,-516 "/>
<path fill="none" stroke="#d8bc56" stroke-width="2" stroke-dasharray="5,2" d="M170.67,-516C170.67,-510 176.67,-504 182.67,-504"/>
<polyline fill="none" stroke="#d8bc56" stroke-width="2" stroke-dasharray="5,2" points="182.67,-504 294.67,-504 "/>
<path fill="none" stroke="#d8bc56" stroke-width="2" stroke-dasharray="5,2" d="M294.67,-504C300.67,-504 306.67,-510 306.67,-516"/>
<polyline fill="none" stroke="#d8bc56" stroke-width="2" stroke-dasharray="5,2" points="306.67,-516 306.67,-528 "/>
<path fill="none" stroke="#d8bc56" stroke-width="2" stroke-dasharray="5,2" d="M306.67,-528C306.67,-534 300.67,-540 294.67,-540"/>
<text text-anchor="middle" x="238.67" y="-519.5" font-family="sans" font-size="10.00">metaphlan2_sample_pe</text>
</g>
<!-- 11&#45;&gt;23 -->
<g id="edge66" class="edge"><title>11&#45;&gt;23</title>
<path fill="none" stroke="grey" stroke-width="2" d="M258.1,-503.831C267.402,-495.134 278.69,-484.578 288.799,-475.127"/>
<polygon fill="grey" stroke="grey" points="291.332,-477.549 296.246,-468.163 286.551,-472.436 291.332,-477.549"/>
</g>
<!-- 12&#45;&gt;21 -->
<g id="edge48" class="edge"><title>12&#45;&gt;21</title>
<path fill="none" stroke="grey" stroke-width="2" d="M355.903,-287.924C320.425,-277.868 276.108,-265.305 239.176,-254.836"/>
<polygon fill="grey" stroke="grey" points="240.039,-251.443 229.463,-252.083 238.13,-258.178 240.039,-251.443"/>
</g>
<!-- 12&#45;&gt;22 -->
<g id="edge54" class="edge"><title>12&#45;&gt;22</title>
<path fill="none" stroke="grey" stroke-width="2" d="M478.283,-287.965C505.277,-278.71 537.316,-266.355 564.67,-252 614.127,-226.045 641.86,-229.532 667.67,-180 689.851,-137.432 698.115,-109.11 667.67,-72 639.09,-37.1628 506.526,-24.3756 437.978,-20.0364"/>
<polygon fill="grey" stroke="grey" points="438.142,-16.54 427.95,-19.4331 437.721,-23.5274 438.142,-16.54"/>
</g>
<!-- 13 -->
<g id="node14" class="node"><title>13</title>
<polyline fill="none" stroke="#56d873" stroke-width="2" points="294.67,-324 178.67,-324 "/>
<path fill="none" stroke="#56d873" stroke-width="2" d="M178.67,-324C172.67,-324 166.67,-318 166.67,-312"/>
<polyline fill="none" stroke="#56d873" stroke-width="2" points="166.67,-312 166.67,-300 "/>
<path fill="none" stroke="#56d873" stroke-width="2" d="M166.67,-300C166.67,-294 172.67,-288 178.67,-288"/>
<polyline fill="none" stroke="#56d873" stroke-width="2" points="178.67,-288 294.67,-288 "/>
<path fill="none" stroke="#56d873" stroke-width="2" d="M294.67,-288C300.67,-288 306.67,-294 306.67,-300"/>
<polyline fill="none" stroke="#56d873" stroke-width="2" points="306.67,-300 306.67,-312 "/>
<path fill="none" stroke="#56d873" stroke-width="2" d="M306.67,-312C306.67,-318 300.67,-324 294.67,-324"/>
<text text-anchor="middle" x="236.67" y="-310" font-family="sans" font-size="10.00">humann2_renorm_tables</text>
<text text-anchor="middle" x="236.67" y="-297" font-family="sans" font-size="10.00">norm: relab</text>
</g>
<!-- 16 -->
<g id="node17" class="node"><title>16</title>
<polyline fill="none" stroke="#a7d856" stroke-width="2" points="543.67,-252 421.67,-252 "/>
<path fill="none" stroke="#a7d856" stroke-width="2" d="M421.67,-252C415.67,-252 409.67,-246 409.67,-240"/>
<polyline fill="none" stroke="#a7d856" stroke-width="2" points="409.67,-240 409.67,-228 "/>
<path fill="none" stroke="#a7d856" stroke-width="2" d="M409.67,-228C409.67,-222 415.67,-216 421.67,-216"/>
<polyline fill="none" stroke="#a7d856" stroke-width="2" points="421.67,-216 543.67,-216 "/>
<path fill="none" stroke="#a7d856" stroke-width="2" d="M543.67,-216C549.67,-216 555.67,-222 555.67,-228"/>
<polyline fill="none" stroke="#a7d856" stroke-width="2" points="555.67,-228 555.67,-240 "/>
<path fill="none" stroke="#a7d856" stroke-width="2" d="M555.67,-240C555.67,-246 549.67,-252 543.67,-252"/>
<text text-anchor="middle" x="482.67" y="-231.5" font-family="sans" font-size="10.00">humann2_combine_tables</text>
</g>
<!-- 13&#45;&gt;16 -->
<g id="edge34" class="edge"><title>13&#45;&gt;16</title>
<path fill="none" stroke="grey" stroke-width="2" d="M298.429,-287.924C332.643,-277.91 375.346,-265.412 411.023,-254.97"/>
<polygon fill="grey" stroke="grey" points="412.272,-258.251 420.886,-252.083 410.305,-251.533 412.272,-258.251"/>
</g>
<!-- 13&#45;&gt;22 -->
<g id="edge56" class="edge"><title>13&#45;&gt;22</title>
<path fill="none" stroke="grey" stroke-width="2" d="M166.374,-288.159C131.98,-278.096 95.4708,-264.97 83.6701,-252 28.7648,-191.656 -5.42531,-133.943 47.6701,-72 67.5126,-48.8512 267.225,-29.074 355.307,-21.4047"/>
<polygon fill="grey" stroke="grey" points="355.813,-24.8743 365.476,-20.5301 355.213,-17.9 355.813,-24.8743"/>
</g>
<!-- 14 -->
<g id="node15" class="node"><title>14</title>
<polyline fill="none" stroke="#59d856" stroke-width="2" stroke-dasharray="5,2" points="221.67,-612 159.67,-612 "/>
<path fill="none" stroke="#59d856" stroke-width="2" stroke-dasharray="5,2" d="M159.67,-612C153.67,-612 147.67,-606 147.67,-600"/>
<polyline fill="none" stroke="#59d856" stroke-width="2" stroke-dasharray="5,2" points="147.67,-600 147.67,-588 "/>
<path fill="none" stroke="#59d856" stroke-width="2" stroke-dasharray="5,2" d="M147.67,-588C147.67,-582 153.67,-576 159.67,-576"/>
<polyline fill="none" stroke="#59d856" stroke-width="2" stroke-dasharray="5,2" points="159.67,-576 221.67,-576 "/>
<path fill="none" stroke="#59d856" stroke-width="2" stroke-dasharray="5,2" d="M221.67,-576C227.67,-576 233.67,-582 233.67,-588"/>
<polyline fill="none" stroke="#59d856" stroke-width="2" stroke-dasharray="5,2" points="233.67,-588 233.67,-600 "/>
<path fill="none" stroke="#59d856" stroke-width="2" stroke-dasharray="5,2" d="M233.67,-600C233.67,-606 227.67,-612 221.67,-612"/>
<text text-anchor="middle" x="190.67" y="-591.5" font-family="sans" font-size="10.00">host_filter_pe</text>
</g>
<!-- 14&#45;&gt;11 -->
<g id="edge22" class="edge"><title>14&#45;&gt;11</title>
<path fill="none" stroke="grey" stroke-width="2" d="M202.783,-575.831C208.198,-567.708 214.694,-557.964 220.662,-549.012"/>
<polygon fill="grey" stroke="grey" points="223.76,-550.675 226.395,-540.413 217.935,-546.792 223.76,-550.675"/>
</g>
<!-- 17 -->
<g id="node18" class="node"><title>17</title>
<polyline fill="none" stroke="#d6d856" stroke-width="2" points="206.67,-396 108.67,-396 "/>
<path fill="none" stroke="#d6d856" stroke-width="2" d="M108.67,-396C102.67,-396 96.6701,-390 96.6701,-384"/>
<polyline fill="none" stroke="#d6d856" stroke-width="2" points="96.6701,-384 96.6701,-372 "/>
<path fill="none" stroke="#d6d856" stroke-width="2" d="M96.6701,-372C96.6701,-366 102.67,-360 108.67,-360"/>
<polyline fill="none" stroke="#d6d856" stroke-width="2" points="108.67,-360 206.67,-360 "/>
<path fill="none" stroke="#d6d856" stroke-width="2" d="M206.67,-360C212.67,-360 218.67,-366 218.67,-372"/>
<polyline fill="none" stroke="#d6d856" stroke-width="2" points="218.67,-372 218.67,-384 "/>
<path fill="none" stroke="#d6d856" stroke-width="2" d="M218.67,-384C218.67,-390 212.67,-396 206.67,-396"/>
<text text-anchor="middle" x="157.67" y="-375.5" font-family="sans" font-size="10.00">humann2_sample_pe</text>
</g>
<!-- 14&#45;&gt;17 -->
<g id="edge36" class="edge"><title>14&#45;&gt;17</title>
<path fill="none" stroke="grey" stroke-width="2" d="M178.184,-575.909C171.956,-565.824 165.047,-552.756 161.67,-540 149.64,-494.551 151.611,-439.408 154.431,-406.593"/>
<polygon fill="grey" stroke="grey" points="157.941,-406.652 155.4,-396.367 150.972,-405.992 157.941,-406.652"/>
</g>
<!-- 15 -->
<g id="node16" class="node"><title>15</title>
<polyline fill="none" stroke="#d85656" stroke-width="2" points="270.67,-180 130.67,-180 "/>
<path fill="none" stroke="#d85656" stroke-width="2" d="M130.67,-180C124.67,-180 118.67,-174 118.67,-168"/>
<polyline fill="none" stroke="#d85656" stroke-width="2" points="118.67,-168 118.67,-156 "/>
<path fill="none" stroke="#d85656" stroke-width="2" d="M118.67,-156C118.67,-150 124.67,-144 130.67,-144"/>
<polyline fill="none" stroke="#d85656" stroke-width="2" points="130.67,-144 270.67,-144 "/>
<path fill="none" stroke="#d85656" stroke-width="2" d="M270.67,-144C276.67,-144 282.67,-150 282.67,-156"/>
<polyline fill="none" stroke="#d85656" stroke-width="2" points="282.67,-156 282.67,-168 "/>
<path fill="none" stroke="#d85656" stroke-width="2" d="M282.67,-168C282.67,-174 276.67,-180 270.67,-180"/>
<text text-anchor="middle" x="200.67" y="-159.5" font-family="sans" font-size="10.00">humann2_remove_unmapped</text>
</g>
<!-- 15&#45;&gt;2 -->
<g id="edge4" class="edge"><title>15&#45;&gt;2</title>
<path fill="none" stroke="grey" stroke-width="2" d="M235.493,-143.831C253.471,-134.452 275.59,-122.911 294.732,-112.924"/>
<polygon fill="grey" stroke="grey" points="296.611,-115.892 303.858,-108.163 293.373,-109.685 296.611,-115.892"/>
</g>
<!-- 16&#45;&gt;3 -->
<g id="edge6" class="edge"><title>16&#45;&gt;3</title>
<path fill="none" stroke="grey" stroke-width="2" d="M458.95,-215.831C447.261,-206.878 433.001,-195.956 420.389,-186.295"/>
<polygon fill="grey" stroke="grey" points="422.45,-183.465 412.383,-180.163 418.193,-189.022 422.45,-183.465"/>
</g>
<!-- 16&#45;&gt;7 -->
<g id="edge12" class="edge"><title>16&#45;&gt;7</title>
<path fill="none" stroke="grey" stroke-width="2" d="M506.39,-215.831C518.079,-206.878 532.339,-195.956 544.951,-186.295"/>
<polygon fill="grey" stroke="grey" points="547.147,-189.022 552.958,-180.163 542.89,-183.465 547.147,-189.022"/>
</g>
<!-- 17&#45;&gt;5 -->
<g id="edge8" class="edge"><title>17&#45;&gt;5</title>
<path fill="none" stroke="grey" stroke-width="2" d="M137.735,-359.831C128.192,-351.134 116.61,-340.578 106.239,-331.127"/>
<polygon fill="grey" stroke="grey" points="108.347,-328.312 98.5988,-324.163 103.632,-333.486 108.347,-328.312"/>
</g>
<!-- 17&#45;&gt;13 -->
<g id="edge26" class="edge"><title>17&#45;&gt;13</title>
<path fill="none" stroke="grey" stroke-width="2" d="M177.605,-359.831C187.148,-351.134 198.73,-340.578 209.101,-331.127"/>
<polygon fill="grey" stroke="grey" points="211.708,-333.486 216.741,-324.163 206.993,-328.312 211.708,-333.486"/>
</g>
<!-- 18&#45;&gt;16 -->
<g id="edge32" class="edge"><title>18&#45;&gt;16</title>
<path fill="none" stroke="grey" stroke-width="2" d="M553.698,-287.831C541.884,-278.878 527.473,-267.956 514.727,-258.295"/>
<polygon fill="grey" stroke="grey" points="516.719,-255.414 506.635,-252.163 512.491,-260.992 516.719,-255.414"/>
</g>
<!-- 18&#45;&gt;22 -->
<g id="edge50" class="edge"><title>18&#45;&gt;22</title>
<path fill="none" stroke="grey" stroke-width="2" d="M599.113,-287.886C645.948,-246.191 748.71,-141.671 690.67,-72 658.971,-33.9488 511.117,-22.6201 437.928,-19.3186"/>
<polygon fill="grey" stroke="grey" points="437.833,-15.8115 427.695,-18.8875 437.538,-22.8053 437.833,-15.8115"/>
</g>
<!-- 19&#45;&gt;9 -->
<g id="edge16" class="edge"><title>19&#45;&gt;9</title>
<path fill="none" stroke="grey" stroke-width="2" d="M440.67,-647.831C440.67,-640.131 440.67,-630.974 440.67,-622.417"/>
<polygon fill="grey" stroke="grey" points="444.17,-622.413 440.67,-612.413 437.17,-622.413 444.17,-622.413"/>
</g>
<!-- 20&#45;&gt;14 -->
<g id="edge28" class="edge"><title>20&#45;&gt;14</title>
<path fill="none" stroke="grey" stroke-width="2" d="M190.67,-647.831C190.67,-640.131 190.67,-630.974 190.67,-622.417"/>
<polygon fill="grey" stroke="grey" points="194.17,-622.413 190.67,-612.413 187.17,-622.413 194.17,-622.413"/>
</g>
<!-- 21&#45;&gt;6 -->
<g id="edge10" class="edge"><title>21&#45;&gt;6</title>
<path fill="none" stroke="grey" stroke-width="2" d="M138.947,-215.91C127.662,-206.644 115.744,-194.295 109.67,-180 100.655,-158.784 111.421,-134.395 123.32,-116.362"/>
<polygon fill="grey" stroke="grey" points="126.27,-118.252 129.17,-108.061 120.548,-114.219 126.27,-118.252"/>
</g>
<!-- 21&#45;&gt;15 -->
<g id="edge30" class="edge"><title>21&#45;&gt;15</title>
<path fill="none" stroke="grey" stroke-width="2" d="M174.502,-215.831C178.369,-207.877 182.991,-198.369 187.267,-189.572"/>
<polygon fill="grey" stroke="grey" points="190.495,-190.937 191.719,-180.413 184.199,-187.877 190.495,-190.937"/>
</g>
<!-- 23&#45;&gt;10 -->
<g id="edge18" class="edge"><title>23&#45;&gt;10</title>
<path fill="none" stroke="grey" stroke-width="2" d="M343.68,-431.831C357.746,-422.707 374.964,-411.539 390.063,-401.745"/>
<polygon fill="grey" stroke="grey" points="392.184,-404.541 398.669,-396.163 388.375,-398.668 392.184,-404.541"/>
</g>
<!-- 23&#45;&gt;17 -->
<g id="edge38" class="edge"><title>23&#45;&gt;17</title>
<path fill="none" stroke="grey" stroke-width="2" d="M275.8,-431.831C254.762,-422.245 228.772,-410.401 206.531,-400.266"/>
<polygon fill="grey" stroke="grey" points="207.805,-397 197.253,-396.038 204.902,-403.37 207.805,-397"/>
</g>
</g>
</svg>
