<?xml version="1.0" encoding="UTF-8" standalone="no"?>
<!DOCTYPE svg PUBLIC "-//W3C//DTD SVG 1.1//EN"
 "http://www.w3.org/Graphics/SVG/1.1/DTD/svg11.dtd">
<!-- Generated by graphviz version 2.26.0 (20091210.2329)
 -->
<!-- Title: snakemake_dag Pages: 1 -->
<svg width="262pt" height="272pt"
 viewBox="0.00 0.00 262.00 272.00" xmlns="http://www.w3.org/2000/svg" xmlns:xlink="http://www.w3.org/1999/xlink">
<g id="graph1" class="graph" transform="scale(1 1) rotate(0) translate(4 268)">
<title>snakemake_dag</title>
<polygon fill="white" stroke="white" points="-4,5 -4,-268 259,-268 259,5 -4,5"/>
<!-- 0 -->
<g id="node1" class="node"><title>0</title>
<polyline fill="none" stroke="#bed856" stroke-width="2" stroke-dasharray="5,2" points="218,-108 156,-108 "/>
<path fill="none" stroke="#bed856" stroke-width="2" stroke-dasharray="5,2" d="M156,-108C150,-108 144,-102 144,-96"/>
<polyline fill="none" stroke="#bed856" stroke-width="2" stroke-dasharray="5,2" points="144,-96 144,-84 "/>
<path fill="none" stroke="#bed856" stroke-width="2" stroke-dasharray="5,2" d="M144,-84C144,-78 150,-72 156,-72"/>
<polyline fill="none" stroke="#bed856" stroke-width="2" stroke-dasharray="5,2" points="156,-72 218,-72 "/>
<path fill="none" stroke="#bed856" stroke-width="2" stroke-dasharray="5,2" d="M218,-72C224,-72 230,-78 230,-84"/>
<polyline fill="none" stroke="#bed856" stroke-width="2" stroke-dasharray="5,2" points="230,-84 230,-96 "/>
<path fill="none" stroke="#bed856" stroke-width="2" stroke-dasharray="5,2" d="M230,-96C230,-102 224,-108 218,-108"/>
<text text-anchor="middle" x="187" y="-87.5" font-family="sans" font-size="10.00">host_filter_pe</text>
</g>
<!-- 6 -->
<g id="node7" class="node"><title>6</title>
<polyline fill="none" stroke="#56d8a2" stroke-width="2" stroke-dasharray="5,2" points="153,-36 109,-36 "/>
<path fill="none" stroke="#56d8a2" stroke-width="2" stroke-dasharray="5,2" d="M109,-36C103,-36 97,-30 97,-24"/>
<polyline fill="none" stroke="#56d8a2" stroke-width="2" stroke-dasharray="5,2" points="97,-24 97,-12 "/>
<path fill="none" stroke="#56d8a2" stroke-width="2" stroke-dasharray="5,2" d="M97,-12C97,-6 103,-1.65097e-14 109,-1.52558e-14"/>
<polyline fill="none" stroke="#56d8a2" stroke-width="2" stroke-dasharray="5,2" points="109,-1.52558e-14 153,-6.06051e-15 "/>
<path fill="none" stroke="#56d8a2" stroke-width="2" stroke-dasharray="5,2" d="M153,-6.06051e-15C159,-4.80661e-15 165,-6 165,-12"/>
<polyline fill="none" stroke="#56d8a2" stroke-width="2" stroke-dasharray="5,2" points="165,-12 165,-24 "/>
<path fill="none" stroke="#56d8a2" stroke-width="2" stroke-dasharray="5,2" d="M165,-24C165,-30 159,-36 153,-36"/>
<text text-anchor="middle" x="131" y="-15.5" font-family="sans" font-size="10.00">host_filter</text>
</g>
<!-- 0&#45;&gt;6 -->
<g id="edge10" class="edge"><title>0&#45;&gt;6</title>
<path fill="none" stroke="grey" stroke-width="2" d="M172.869,-71.8314C166.419,-63.5386 158.655,-53.557 151.575,-44.4533"/>
<polygon fill="grey" stroke="grey" points="154.224,-42.158 145.321,-36.4133 148.698,-46.4556 154.224,-42.158"/>
</g>
<!-- 1 -->
<g id="node2" class="node"><title>1</title>
<polyline fill="none" stroke="#56d88a" stroke-width="2" stroke-dasharray="5,2" points="103,-263.5 15,-263.5 "/>
<path fill="none" stroke="#56d88a" stroke-width="2" stroke-dasharray="5,2" d="M15,-263.5C9,-263.5 3,-257.5 3,-251.5"/>
<polyline fill="none" stroke="#56d88a" stroke-width="2" stroke-dasharray="5,2" points="3,-251.5 3,-228.5 "/>
<path fill="none" stroke="#56d88a" stroke-width="2" stroke-dasharray="5,2" d="M3,-228.5C3,-222.5 9,-216.5 15,-216.5"/>
<polyline fill="none" stroke="#56d88a" stroke-width="2" stroke-dasharray="5,2" points="15,-216.5 103,-216.5 "/>
<path fill="none" stroke="#56d88a" stroke-width="2" stroke-dasharray="5,2" d="M103,-216.5C109,-216.5 115,-222.5 115,-228.5"/>
<polyline fill="none" stroke="#56d88a" stroke-width="2" stroke-dasharray="5,2" points="115,-228.5 115,-251.5 "/>
<path fill="none" stroke="#56d88a" stroke-width="2" stroke-dasharray="5,2" d="M115,-251.5C115,-257.5 109,-263.5 103,-263.5"/>
<text text-anchor="middle" x="59" y="-250.5" font-family="sans" font-size="10.00">raw_make_links_pe</text>
<text text-anchor="middle" x="59" y="-237.5" font-family="sans" font-size="10.00">run: Run1</text>
<text text-anchor="middle" x="59" y="-224.5" font-family="sans" font-size="10.00">sample: sample2</text>
</g>
<!-- 3 -->
<g id="node4" class="node"><title>3</title>
<polyline fill="none" stroke="#d8bc56" stroke-width="2" stroke-dasharray="5,2" points="106,-180 12,-180 "/>
<path fill="none" stroke="#d8bc56" stroke-width="2" stroke-dasharray="5,2" d="M12,-180C6,-180 5.32907e-14,-174 4.26326e-14,-168"/>
<polyline fill="none" stroke="#d8bc56" stroke-width="2" stroke-dasharray="5,2" points="4.26326e-14,-168 2.13163e-14,-156 "/>
<path fill="none" stroke="#d8bc56" stroke-width="2" stroke-dasharray="5,2" d="M2.13163e-14,-156C1.06581e-14,-150 6,-144 12,-144"/>
<polyline fill="none" stroke="#d8bc56" stroke-width="2" stroke-dasharray="5,2" points="12,-144 106,-144 "/>
<path fill="none" stroke="#d8bc56" stroke-width="2" stroke-dasharray="5,2" d="M106,-144C112,-144 118,-150 118,-156"/>
<polyline fill="none" stroke="#d8bc56" stroke-width="2" stroke-dasharray="5,2" points="118,-156 118,-168 "/>
<path fill="none" stroke="#d8bc56" stroke-width="2" stroke-dasharray="5,2" d="M118,-168C118,-174 112,-180 106,-180"/>
<text text-anchor="middle" x="59" y="-159.5" font-family="sans" font-size="10.00">qc_trimmomatic_pe</text>
</g>
<!-- 1&#45;&gt;3 -->
<g id="edge6" class="edge"><title>1&#45;&gt;3</title>
<path fill="none" stroke="grey" stroke-width="2" d="M59,-216.174C59,-208.109 59,-199.02 59,-190.622"/>
<polygon fill="grey" stroke="grey" points="62.5001,-190.485 59,-180.485 55.5001,-190.485 62.5001,-190.485"/>
</g>
<!-- 2 -->
<g id="node3" class="node"><title>2</title>
<polyline fill="none" stroke="#bed856" stroke-width="2" stroke-dasharray="5,2" points="106,-108 44,-108 "/>
<path fill="none" stroke="#bed856" stroke-width="2" stroke-dasharray="5,2" d="M44,-108C38,-108 32,-102 32,-96"/>
<polyline fill="none" stroke="#bed856" stroke-width="2" stroke-dasharray="5,2" points="32,-96 32,-84 "/>
<path fill="none" stroke="#bed856" stroke-width="2" stroke-dasharray="5,2" d="M32,-84C32,-78 38,-72 44,-72"/>
<polyline fill="none" stroke="#bed856" stroke-width="2" stroke-dasharray="5,2" points="44,-72 106,-72 "/>
<path fill="none" stroke="#bed856" stroke-width="2" stroke-dasharray="5,2" d="M106,-72C112,-72 118,-78 118,-84"/>
<polyline fill="none" stroke="#bed856" stroke-width="2" stroke-dasharray="5,2" points="118,-84 118,-96 "/>
<path fill="none" stroke="#bed856" stroke-width="2" stroke-dasharray="5,2" d="M118,-96C118,-102 112,-108 106,-108"/>
<text text-anchor="middle" x="75" y="-87.5" font-family="sans" font-size="10.00">host_filter_pe</text>
</g>
<!-- 2&#45;&gt;6 -->
<g id="edge12" class="edge"><title>2&#45;&gt;6</title>
<path fill="none" stroke="grey" stroke-width="2" d="M89.1312,-71.8314C95.5811,-63.5386 103.345,-53.557 110.425,-44.4533"/>
<polygon fill="grey" stroke="grey" points="113.302,-46.4556 116.679,-36.4133 107.776,-42.158 113.302,-46.4556"/>
</g>
<!-- 3&#45;&gt;2 -->
<g id="edge4" class="edge"><title>3&#45;&gt;2</title>
<path fill="none" stroke="grey" stroke-width="2" d="M63.0375,-143.831C64.7487,-136.131 66.7835,-126.974 68.6852,-118.417"/>
<polygon fill="grey" stroke="grey" points="72.1554,-118.934 70.9082,-108.413 65.3221,-117.416 72.1554,-118.934"/>
</g>
<!-- 4 -->
<g id="node5" class="node"><title>4</title>
<polyline fill="none" stroke="#d8bc56" stroke-width="2" stroke-dasharray="5,2" points="242,-180 148,-180 "/>
<path fill="none" stroke="#d8bc56" stroke-width="2" stroke-dasharray="5,2" d="M148,-180C142,-180 136,-174 136,-168"/>
<polyline fill="none" stroke="#d8bc56" stroke-width="2" stroke-dasharray="5,2" points="136,-168 136,-156 "/>
<path fill="none" stroke="#d8bc56" stroke-width="2" stroke-dasharray="5,2" d="M136,-156C136,-150 142,-144 148,-144"/>
<polyline fill="none" stroke="#d8bc56" stroke-width="2" stroke-dasharray="5,2" points="148,-144 242,-144 "/>
<path fill="none" stroke="#d8bc56" stroke-width="2" stroke-dasharray="5,2" d="M242,-144C248,-144 254,-150 254,-156"/>
<polyline fill="none" stroke="#d8bc56" stroke-width="2" stroke-dasharray="5,2" points="254,-156 254,-168 "/>
<path fill="none" stroke="#d8bc56" stroke-width="2" stroke-dasharray="5,2" d="M254,-168C254,-174 248,-180 242,-180"/>
<text text-anchor="middle" x="195" y="-159.5" font-family="sans" font-size="10.00">qc_trimmomatic_pe</text>
</g>
<!-- 4&#45;&gt;0 -->
<g id="edge2" class="edge"><title>4&#45;&gt;0</title>
<path fill="none" stroke="grey" stroke-width="2" d="M192.981,-143.831C192.126,-136.131 191.108,-126.974 190.157,-118.417"/>
<polygon fill="grey" stroke="grey" points="193.629,-117.966 189.046,-108.413 186.672,-118.739 193.629,-117.966"/>
</g>
<!-- 5 -->
<g id="node6" class="node"><title>5</title>
<polyline fill="none" stroke="#56d88a" stroke-width="2" stroke-dasharray="5,2" points="239,-263.5 151,-263.5 "/>
<path fill="none" stroke="#56d88a" stroke-width="2" stroke-dasharray="5,2" d="M151,-263.5C145,-263.5 139,-257.5 139,-251.5"/>
<polyline fill="none" stroke="#56d88a" stroke-width="2" stroke-dasharray="5,2" points="139,-251.5 139,-228.5 "/>
<path fill="none" stroke="#56d88a" stroke-width="2" stroke-dasharray="5,2" d="M139,-228.5C139,-222.5 145,-216.5 151,-216.5"/>
<polyline fill="none" stroke="#56d88a" stroke-width="2" stroke-dasharray="5,2" points="151,-216.5 239,-216.5 "/>
<path fill="none" stroke="#56d88a" stroke-width="2" stroke-dasharray="5,2" d="M239,-216.5C245,-216.5 251,-222.5 251,-228.5"/>
<polyline fill="none" stroke="#56d88a" stroke-width="2" stroke-dasharray="5,2" points="251,-228.5 251,-251.5 "/>
<path fill="none" stroke="#56d88a" stroke-width="2" stroke-dasharray="5,2" d="M251,-251.5C251,-257.5 245,-263.5 239,-263.5"/>
<text text-anchor="middle" x="195" y="-250.5" font-family="sans" font-size="10.00">raw_make_links_pe</text>
<text text-anchor="middle" x="195" y="-237.5" font-family="sans" font-size="10.00">run: Run1</text>
<text text-anchor="middle" x="195" y="-224.5" font-family="sans" font-size="10.00">sample: sample1</text>
</g>
<!-- 5&#45;&gt;4 -->
<g id="edge8" class="edge"><title>5&#45;&gt;4</title>
<path fill="none" stroke="grey" stroke-width="2" d="M195,-216.174C195,-208.109 195,-199.02 195,-190.622"/>
<polygon fill="grey" stroke="grey" points="198.5,-190.485 195,-180.485 191.5,-190.485 198.5,-190.485"/>
</g>
</g>
</svg>
